<svg version="1.2" xmlns="http://www.w3.org/2000/svg" viewBox="0 0 201 160" width="201" height="160">
	<title>single-post-img-svg</title>
	<defs>
		<clipPath clipPathUnits="userSpaceOnUse" id="cp1">
			<path d="m9.66 139.13h188.49v13.49h-188.49z"/>
		</clipPath>
	</defs>
	<style>
		.s0 { fill: #ffffff } 
		.s1 { fill: #d0e7f7 } 
		.s2 { fill: #1da1f2;stroke: #ffffff;stroke-width: 5 } 
		.s3 { fill: #1da1f2 } 
		.s4 { fill: #eff1f3 } 
		.s5 { fill: #657281 } 
		.s6 { fill: #1da1f3 } 
		.s7 { fill: #2e363f } 
		.s8 { fill: #0e1647 } 
		.s9 { fill: #f4caab } 
		.s10 { fill: #334d7c } 
		.s11 { fill: #0f2251 } 
		.s12 { fill: #7575d3 } 
		.s13 { fill: #2b4770 } 
		.s14 { fill: #3d5586 } 
		.s15 { fill: #5a5abf } 
		.s16 { fill: #061e59 } 
		.s17 { fill: #6b6bce } 
		.s18 { fill: #5754b9 } 
		.s19 { fill: #c36252 } 
		.s20 { fill: #072872 } 
		.s21 { fill: #dd7858 } 
		.s22 { fill: #15328c } 
		.s23 { fill: #5b5bbc } 
		.s24 { fill: #1e429b } 
		.s25 { fill: #0f2e7c } 
		.s26 { fill: #161237 } 
		.s27 { fill: #23173d } 
		.s28 { fill: #fefdfb } 
	</style>
	<g id="Layer">
		<path id="Layer" class="s0" d="m-2 23.8c0-2.8 2.2-5 5-5h196c2.8 0 5 2.2 5 5v135.5c0 2.7-2.2 5-5 5h-196c-2.8 0-5-2.3-5-5z"/>
	</g>
	<path id="Layer" class="s1" d="m3.8 29.6c0-2.7 2.3-5 5-5h184.4c2.7 0 5 2.3 5 5v53.8c0 2.8-2.3 5-5 5h-184.4c-2.7 0-5-2.2-5-5z"/>
	<path id="Layer" class="s2" d="m12.3 73.9c0-1.3 1.1-2.5 2.5-2.5h31.5c1.3 0 2.5 1.2 2.5 2.5v27.4c0 1.4-1.2 2.5-2.5 2.5h-31.5c-1.4 0-2.5-1.1-2.5-2.5z"/>
	<path id="Layer" class="s1" d="m11.5 114h108.3v5.3h-108.3z"/>
	<path id="Layer" class="s1" d="m11.5 122.2h70.7v5.3h-70.7z"/>
	<path id="Layer" fill-rule="evenodd" class="s3" d="m21.1 93.9c-1.2-1.8-1.9-4-1.9-6.3 0-6.2 5.1-11.3 11.3-11.3 6.3 0 11.3 5.1 11.3 11.3 0 2.3-0.6 4.5-1.8 6.3-1.7-3.6-5.3-6.1-9.5-6.1-4.2 0-7.7 2.5-9.4 6.1zm5.4-10.6c0 2.1 1.8 3.9 4 3.9 2.2 0 4-1.8 4-3.9 0-2.2-1.8-4-4-4-2.2 0-4 1.8-4 4z"/>
	<path id="Layer" class="s0" d="m30.5 87.6c2.2 0 3.9-1.8 3.9-4 0-2.1-1.7-3.9-3.9-3.9-2.2 0-4 1.8-4 3.9 0 2.3 1.8 4 4 4z"/>
	<path id="Layer" class="s0" d="m30.5 99c4 0 7.5-2 9.5-5.1-1.7-3.6-5.3-6.1-9.5-6.1-4.1 0-7.7 2.5-9.4 6.1 2 3.1 5.5 5.1 9.4 5.1z"/>
	<path id="Layer" class="s0" d="m9.7 139.1h188.5v13.5h-188.5z"/>
	<g id="Clip-Path" clip-path="url(#cp1)">
		<path id="Layer" class="s4" d="m9.7 141.1h188.5v-4h-188.5z"/>
	</g>
	<path id="Layer" fill-rule="evenodd" class="s5" d="m44.6 152.4l1.3-3.9h0.5l1.3 3.9h-0.5l-0.4-1.2h-1.4l-0.3 1.2zm1.1-2.2l-0.2 0.6h1.2l-0.2-0.6q-0.2-0.6-0.4-1.3-0.2 0.7-0.4 1.3z"/>
	<path id="Layer" class="s5" d="m49.9 152.4v-2.5h-1.2v2.5h-0.5v-2.5h-0.3v-0.4h0.3v-0.4c0-0.6 0.3-0.9 0.9-0.9q0.3 0 0.6 0.1l-0.1 0.3q-0.2 0-0.4 0-0.5 0-0.5 0.6v0.3h1.2v-0.4c0-0.6 0.3-1 0.9-1q0.2 0 0.4 0.1l-0.1 0.4q-0.1-0.1-0.3-0.1-0.4 0-0.4 0.6v0.4h0.6v0.4h-0.6v2.5z"/>
	<path id="Layer" class="s5" d="m51.6 152.4v-2.9h0.4v2.9zm0.3-3.5c-0.2 0-0.3-0.1-0.3-0.3 0-0.2 0.1-0.3 0.3-0.3 0.2 0 0.3 0.1 0.3 0.3 0 0.2-0.1 0.3-0.3 0.3z"/>
	<path id="Layer" class="s5" d="m53.5 152.4c-0.3 0-0.5-0.2-0.5-0.6v-3.6h0.5v3.6c0 0.2 0.1 0.2 0.1 0.2q0.1 0.1 0.1 0l0.1 0.4q-0.1 0-0.3 0z"/>
	<path id="Layer" class="s5" d="m54.5 152.4v-2.9h0.5v2.9zm0.2-3.5c-0.1 0-0.3-0.1-0.3-0.3 0-0.2 0.2-0.3 0.3-0.3 0.2 0 0.4 0.1 0.4 0.3 0 0.2-0.2 0.3-0.4 0.3z"/>
	<path id="Layer" fill-rule="evenodd" class="s5" d="m56.6 152.4c-0.5 0-0.8-0.3-0.8-0.8 0-0.6 0.5-0.9 1.7-1 0-0.4-0.1-0.8-0.6-0.8-0.3 0-0.6 0.2-0.8 0.4l-0.2-0.4c0.3-0.2 0.7-0.4 1.1-0.4 0.7 0 1 0.5 1 1.2v1.8h-0.4v-0.4c-0.3 0.3-0.6 0.4-1 0.4zm0.2-0.3c0.2 0 0.5-0.2 0.7-0.4v-0.8c-0.9 0.1-1.2 0.3-1.2 0.7 0 0.3 0.2 0.5 0.5 0.5z"/>
	<path id="Layer" class="s5" d="m59.7 152.4c-0.6 0-0.8-0.3-0.8-0.9v-1.6h-0.4v-0.4h0.4l0.1-0.8h0.4v0.8h0.8v0.4h-0.8v1.6c0 0.4 0.1 0.6 0.5 0.6 0.1 0 0.2-0.1 0.3-0.1l0.1 0.3c-0.2 0.1-0.4 0.1-0.6 0.1z"/>
	<path id="Layer" fill-rule="evenodd" class="s5" d="m61.9 152.4c-0.8 0-1.4-0.5-1.4-1.4 0-1 0.7-1.6 1.3-1.6 0.8 0 1.2 0.6 1.2 1.4q0 0.1-0.1 0.3h-1.9c0.1 0.6 0.4 1 1 1q0.4 0 0.7-0.3l0.2 0.4c-0.3 0.1-0.6 0.2-1 0.2zm-0.9-1.7h1.5c0-0.6-0.2-0.9-0.7-0.9-0.4 0-0.7 0.4-0.8 0.9z"/>
	<path id="Layer" class="s5" d="m64.4 152.4c-0.4 0-0.8-0.1-1-0.3l0.2-0.4c0.2 0.2 0.5 0.4 0.8 0.4 0.4 0 0.6-0.2 0.6-0.5 0-0.3-0.3-0.4-0.7-0.5-0.4-0.2-0.8-0.4-0.8-0.8 0-0.5 0.4-0.9 1-0.9 0.3 0 0.6 0.2 0.9 0.4l-0.3 0.3c-0.2-0.2-0.4-0.3-0.6-0.3-0.4 0-0.5 0.2-0.5 0.4 0 0.3 0.3 0.4 0.6 0.5 0.4 0.2 0.9 0.4 0.9 0.9 0 0.5-0.4 0.8-1.1 0.8z"/>
	<path id="Layer" class="s5" d="m87.9 152.4v-3.3h-1.1v-0.6h2.9v0.6h-1.1v3.3z"/>
	<path id="Layer" class="s5" d="m90.6 152.4l-0.8-2.9h0.7l0.3 1.5q0.1 0.2 0.1 0.4 0 0.2 0.1 0.4 0.1-0.2 0.1-0.4 0-0.2 0.1-0.4l0.4-1.5h0.6l0.4 1.5q0 0.2 0.1 0.4 0 0.2 0.1 0.4 0-0.2 0.1-0.4 0-0.2 0-0.4l0.4-1.5h0.6l-0.7 2.9h-0.8l-0.4-1.4q0-0.2 0-0.4-0.1-0.2-0.1-0.4h-0.1q0 0.2 0 0.4-0.1 0.2-0.1 0.4l-0.4 1.4z"/>
	<path id="Layer" fill-rule="evenodd" class="s5" d="m95.7 152.4q-0.4 0-0.7-0.1-0.4-0.2-0.5-0.5-0.2-0.4-0.2-0.9 0-0.4 0.2-0.8 0.2-0.3 0.5-0.5 0.3-0.2 0.6-0.2 0.4 0 0.7 0.2 0.2 0.2 0.4 0.5 0.1 0.3 0.1 0.7 0 0.2 0 0.3h-1.9q0.1 0.4 0.3 0.6 0.2 0.2 0.6 0.2 0.2 0 0.3 0 0.2-0.1 0.4-0.2l0.2 0.4q-0.2 0.2-0.5 0.3-0.2 0-0.5 0zm-0.8-1.7h1.3q0-0.4-0.1-0.6-0.2-0.2-0.5-0.2-0.2 0-0.4 0.2-0.2 0.2-0.3 0.6z"/>
	<path id="Layer" fill-rule="evenodd" class="s5" d="m98.7 152.4q-0.4 0-0.7-0.1-0.4-0.2-0.6-0.5-0.1-0.4-0.1-0.9 0-0.4 0.1-0.8 0.2-0.3 0.5-0.5 0.3-0.2 0.7-0.2 0.4 0 0.6 0.2 0.3 0.2 0.4 0.5 0.2 0.3 0.2 0.7 0 0.2-0.1 0.3h-1.8q0.1 0.4 0.3 0.6 0.2 0.2 0.6 0.2 0.2 0 0.3 0 0.2-0.1 0.3-0.2l0.3 0.4q-0.2 0.2-0.5 0.3-0.2 0-0.5 0zm-0.8-1.7h1.3q0-0.4-0.2-0.6-0.1-0.2-0.4-0.2-0.3 0-0.5 0.2-0.1 0.2-0.2 0.6z"/>
	<path id="Layer" class="s5" d="m101.4 152.4q-0.5 0-0.7-0.2-0.2-0.3-0.2-0.8v-1.4h-0.4v-0.5h0.4l0.1-0.8h0.5v0.8h0.8v0.5h-0.8v1.4q0.1 0.5 0.5 0.5 0 0 0.1 0 0.1 0 0.2-0.1l0.1 0.5q-0.1 0.1-0.3 0.1-0.1 0-0.3 0z"/>
	<path id="Layer" class="s5" d="m103.2 152.4q-0.3 0-0.5-0.1-0.3-0.1-0.6-0.3l0.4-0.4q0.2 0.2 0.4 0.2 0.1 0.1 0.4 0.1 0.2 0 0.3-0.1 0.1-0.1 0.1-0.2 0-0.1-0.1-0.2-0.1-0.1-0.2-0.2-0.1 0-0.3-0.1-0.2 0-0.4-0.1-0.2-0.2-0.3-0.3-0.1-0.2-0.1-0.4 0-0.4 0.3-0.6 0.3-0.3 0.8-0.3 0.3 0 0.5 0.1 0.2 0.1 0.4 0.3l-0.3 0.4q-0.1-0.1-0.3-0.2-0.2-0.1-0.3-0.1-0.2 0-0.3 0.1-0.2 0.1-0.2 0.2 0 0.2 0.2 0.3 0.2 0.1 0.4 0.2 0.2 0 0.4 0.2 0.2 0.1 0.3 0.2 0.2 0.2 0.2 0.5 0 0.3-0.3 0.6-0.3 0.2-0.9 0.2z"/>
	<path id="Layer" fill-rule="evenodd" class="s5" d="m107.1 152.4q-0.4 0-0.6-0.1-0.3-0.1-0.5-0.4-0.1-0.2-0.1-0.5 0-0.3 0.1-0.5 0.1-0.2 0.3-0.4 0.1-0.1 0.3-0.2-0.1-0.3-0.2-0.5 0-0.2 0-0.4 0-0.2 0.1-0.5 0.1-0.2 0.3-0.3 0.3-0.1 0.5-0.1 0.4 0 0.7 0.2 0.2 0.2 0.2 0.6 0 0.2-0.1 0.4-0.1 0.2-0.3 0.4-0.2 0.1-0.4 0.3 0.1 0.2 0.4 0.5 0.2 0.2 0.4 0.4 0.2-0.2 0.3-0.5 0.1-0.2 0.2-0.5h0.6q-0.1 0.3-0.2 0.7-0.2 0.3-0.4 0.6 0.2 0.1 0.4 0.2 0.1 0.1 0.3 0.1l-0.2 0.5q-0.2 0-0.4-0.1-0.3-0.1-0.5-0.3-0.3 0.2-0.5 0.3-0.3 0.1-0.7 0.1zm-0.2-3q0 0.1 0.1 0.3 0 0.1 0.1 0.3 0.2-0.2 0.4-0.3 0.2-0.2 0.2-0.4 0-0.2-0.1-0.3-0.1-0.1-0.2-0.1-0.2 0-0.3 0.2-0.2 0.1-0.2 0.3zm-0.4 1.9q0 0.3 0.2 0.5 0.2 0.1 0.5 0.1 0.2 0 0.3 0 0.2-0.1 0.3-0.2-0.2-0.2-0.5-0.5-0.2-0.2-0.4-0.5-0.2 0.2-0.3 0.3-0.1 0.1-0.1 0.3z"/>
	<path id="Layer" class="s5" d="m111.1 152.4v-2.9h0.5l0.1 0.5q0.2-0.3 0.4-0.4 0.2-0.2 0.4-0.2 0.2 0 0.4 0.1l-0.2 0.6q0-0.1-0.1-0.1-0.1 0-0.2 0-0.1 0-0.3 0.2-0.2 0.1-0.3 0.4v1.8z"/>
	<path id="Layer" fill-rule="evenodd" class="s5" d="m114.5 152.4q-0.4 0-0.8-0.1-0.3-0.2-0.5-0.5-0.2-0.4-0.2-0.9 0-0.4 0.2-0.8 0.2-0.3 0.5-0.5 0.3-0.2 0.7-0.2 0.4 0 0.6 0.2 0.3 0.2 0.4 0.5 0.2 0.3 0.2 0.7 0 0.2-0.1 0.3h-1.8q0 0.4 0.3 0.6 0.2 0.2 0.6 0.2 0.1 0 0.3 0 0.2-0.1 0.3-0.2l0.2 0.4q-0.2 0.2-0.4 0.3-0.3 0-0.5 0zm-0.8-1.7h1.3q0-0.4-0.2-0.6-0.1-0.2-0.4-0.2-0.3 0-0.5 0.2-0.2 0.2-0.2 0.6z"/>
	<path id="Layer" fill-rule="evenodd" class="s5" d="m116.2 153.5v-4h0.6v0.3q0.2-0.2 0.4-0.3 0.3-0.1 0.5-0.1 0.6 0 0.8 0.4 0.3 0.4 0.3 1.1 0 0.5-0.1 0.8-0.2 0.4-0.5 0.6-0.3 0.1-0.6 0.1-0.2 0-0.4 0-0.2-0.1-0.3-0.3v0.5 0.9zm1.2-1.6q0.3 0 0.5-0.3 0.2-0.2 0.2-0.7 0-0.4-0.1-0.7-0.2-0.2-0.5-0.2-0.3 0-0.6 0.3v1.3q0.1 0.2 0.3 0.2 0.1 0.1 0.2 0.1z"/>
	<path id="Layer" class="s5" d="m120.2 152.4q-0.4 0-0.5-0.2-0.2-0.2-0.2-0.6v-3.4h0.7v3.5q0 0.1 0.1 0.1 0 0.1 0.1 0.1 0 0 0 0 0 0 0.1 0v0.5q0 0-0.1 0-0.1 0-0.2 0z"/>
	<path id="Layer" class="s5" d="m121.1 152.4v-2.9h0.7v2.9zm0.3-3.4q-0.1 0-0.2-0.1-0.2-0.1-0.2-0.3 0-0.2 0.2-0.3 0.1-0.1 0.2-0.1 0.2 0 0.3 0.1 0.2 0.1 0.2 0.3 0 0.2-0.2 0.3-0.1 0.1-0.3 0.1z"/>
	<path id="Layer" fill-rule="evenodd" class="s5" d="m123.9 152.4q-0.4 0-0.7-0.1-0.3-0.2-0.5-0.5-0.2-0.4-0.2-0.9 0-0.4 0.2-0.8 0.2-0.3 0.5-0.5 0.3-0.2 0.6-0.2 0.4 0 0.7 0.2 0.2 0.2 0.4 0.5 0.1 0.3 0.1 0.7 0 0.2 0 0.3h-1.9q0.1 0.4 0.3 0.6 0.2 0.2 0.6 0.2 0.2 0 0.3 0 0.2-0.1 0.4-0.2l0.2 0.4q-0.2 0.2-0.5 0.3-0.2 0-0.5 0zm-0.8-1.7h1.3q0-0.4-0.1-0.6-0.2-0.2-0.5-0.2-0.2 0-0.4 0.2-0.2 0.2-0.3 0.6z"/>
	<path id="Layer" class="s5" d="m126.5 152.4q-0.3 0-0.6-0.1-0.3-0.1-0.5-0.3l0.3-0.4q0.2 0.2 0.4 0.2 0.2 0.1 0.4 0.1 0.2 0 0.3-0.1 0.1-0.1 0.1-0.2 0-0.1-0.1-0.2 0-0.1-0.2-0.2-0.1 0-0.3-0.1-0.2 0-0.4-0.1-0.1-0.2-0.3-0.3-0.1-0.2-0.1-0.4 0-0.4 0.3-0.6 0.3-0.3 0.8-0.3 0.3 0 0.5 0.1 0.3 0.1 0.4 0.3l-0.3 0.4q-0.1-0.1-0.3-0.2-0.1-0.1-0.3-0.1-0.2 0-0.3 0.1-0.1 0.1-0.1 0.2 0 0.2 0.1 0.3 0.2 0.1 0.5 0.2 0.2 0 0.3 0.2 0.2 0.1 0.4 0.2 0.1 0.2 0.1 0.5 0 0.3-0.3 0.6-0.3 0.2-0.8 0.2z"/>
	<path id="Layer" class="s5" d="m149.3 152.4v-3.9h0.6l0.7 2.1q0.2 0.4 0.3 0.8 0.1-0.4 0.3-0.8l0.7-2.1h0.6v3.9h-0.5v-2.2c0-0.3 0.1-0.8 0.1-1.1l-0.3 0.9-0.8 2h-0.3l-0.7-2-0.3-0.9c0 0.3 0 0.8 0 1.1v2.2z"/>
	<path id="Layer" fill-rule="evenodd" class="s5" d="m154.7 152.4c-0.8 0-1.4-0.5-1.4-1.5 0-0.9 0.6-1.5 1.3-1.5 0.7 0 1.1 0.6 1.1 1.4q0 0.1 0 0.3h-1.9c0 0.6 0.4 1 0.9 1q0.4-0.1 0.7-0.3l0.2 0.3c-0.2 0.2-0.5 0.3-0.9 0.3zm-0.9-1.7h1.5c0-0.6-0.3-0.9-0.7-0.9-0.4 0-0.8 0.3-0.8 0.9z"/>
	<path id="Layer" fill-rule="evenodd" class="s5" d="m157.4 152.4c-0.7 0-1.2-0.5-1.2-1.5 0-0.9 0.6-1.5 1.3-1.5 0.3 0 0.5 0.2 0.8 0.4l-0.1-0.5v-1.1h0.5v4.2h-0.4v-0.4c-0.3 0.3-0.6 0.4-0.9 0.4zm0.1-0.4q0.4 0 0.7-0.4v-1.5c-0.2-0.2-0.4-0.3-0.7-0.3-0.4 0-0.8 0.5-0.8 1.1 0 0.7 0.3 1.1 0.8 1.1z"/>
	<path id="Layer" class="s5" d="m159.7 152.4v-2.9h0.5v2.9zm0.2-3.5c-0.2 0-0.3-0.1-0.3-0.3 0-0.2 0.1-0.3 0.3-0.3 0.2 0 0.4 0.1 0.4 0.3 0 0.2-0.2 0.3-0.4 0.3z"/>
	<path id="Layer" fill-rule="evenodd" class="s5" d="m161.8 152.4c-0.5 0-0.8-0.3-0.8-0.8 0-0.6 0.5-0.9 1.7-1 0-0.4-0.1-0.8-0.6-0.8-0.3 0-0.6 0.2-0.8 0.3l-0.2-0.3c0.3-0.2 0.7-0.4 1.1-0.4 0.7 0 1 0.5 1 1.2v1.8h-0.4v-0.4h-0.1c-0.2 0.3-0.5 0.4-0.9 0.4zm0.1-0.3c0.3 0 0.5-0.2 0.8-0.4v-0.8c-0.9 0.1-1.3 0.3-1.3 0.7 0 0.3 0.3 0.5 0.5 0.5z"/>
	<path id="Layer" class="s5" d="m185.8 152.4v-3.9h0.5v3.5h1.7v0.4z"/>
	<path id="Layer" class="s5" d="m188.7 152.4v-2.9h0.4v2.9zm0.3-3.5c-0.2 0-0.3-0.1-0.3-0.3 0-0.2 0.1-0.3 0.3-0.3 0.2 0 0.3 0.1 0.3 0.3 0 0.2-0.1 0.3-0.3 0.3z"/>
	<path id="Layer" class="s5" d="m190.1 152.4v-4.2h0.5v2.8l1.2-1.5h0.6l-1 1.2 1.1 1.7h-0.5l-0.9-1.4-0.5 0.6v0.8z"/>
	<path id="Layer" fill-rule="evenodd" class="s5" d="m194.1 152.4c-0.8 0-1.4-0.5-1.4-1.5 0-0.9 0.6-1.5 1.3-1.5 0.7 0 1.1 0.6 1.1 1.4q0 0.1 0 0.3h-1.9c0 0.6 0.4 1 0.9 1q0.4-0.1 0.7-0.3l0.2 0.3c-0.2 0.2-0.5 0.3-0.9 0.3zm-0.9-1.7h1.5c0-0.6-0.3-0.9-0.7-0.9-0.4 0-0.8 0.3-0.8 0.9z"/>
	<path id="Layer" class="s5" d="m196.6 152.4c-0.4 0-0.8-0.1-1.1-0.4l0.3-0.3c0.2 0.2 0.5 0.4 0.8 0.4 0.4 0 0.6-0.2 0.6-0.5 0-0.3-0.4-0.4-0.7-0.5-0.4-0.2-0.8-0.4-0.8-0.8 0-0.5 0.3-0.9 0.9-0.9 0.4 0 0.7 0.2 0.9 0.4l-0.2 0.3c-0.2-0.2-0.4-0.3-0.7-0.3-0.3 0-0.5 0.2-0.5 0.4 0 0.3 0.3 0.4 0.7 0.5 0.4 0.2 0.8 0.3 0.8 0.9 0 0.5-0.3 0.8-1 0.8z"/>
	<path id="Layer" fill-rule="evenodd" class="s5" d="m10.4 152.4v-3.9h1.1c0.8 0 1.4 0.3 1.4 1.2 0 0.8-0.6 1.1-1.4 1.1h-0.6v1.6zm0.4-2h0.6q1 0.1 1-0.7c0-0.6-0.3-0.8-1-0.8h-0.6z"/>
	<path id="Layer" fill-rule="evenodd" class="s5" d="m14.6 152.4c-0.7 0-1.3-0.5-1.3-1.4 0-1 0.6-1.6 1.3-1.6 0.7 0 1.3 0.6 1.3 1.6 0 0.9-0.6 1.4-1.3 1.4zm0-0.4c0.5 0 0.8-0.4 0.8-1 0-0.7-0.3-1.2-0.8-1.2-0.5 0-0.8 0.5-0.8 1.2 0 0.6 0.3 1 0.8 1z"/>
	<path id="Layer" class="s5" d="m17.4 152.4c-0.4 0-0.7-0.1-1-0.3l0.2-0.4c0.3 0.2 0.5 0.4 0.9 0.4 0.3 0 0.5-0.2 0.5-0.5 0-0.3-0.3-0.4-0.6-0.5-0.4-0.2-0.9-0.4-0.9-0.8 0-0.5 0.4-0.9 1-0.9 0.4 0 0.7 0.2 0.9 0.4l-0.2 0.3c-0.2-0.2-0.4-0.3-0.7-0.3-0.3 0-0.5 0.2-0.5 0.4 0 0.3 0.3 0.4 0.6 0.5 0.4 0.2 0.9 0.4 0.9 0.9 0 0.5-0.4 0.8-1.1 0.8z"/>
	<path id="Layer" class="s5" d="m20 152.4c-0.7 0-0.9-0.3-0.9-0.9v-1.6h-0.4v-0.4h0.5v-0.8h0.4v0.8h0.8v0.4h-0.8v1.6c0 0.4 0.1 0.6 0.5 0.6 0.1 0 0.2-0.1 0.3-0.1l0.1 0.3c-0.2 0.1-0.4 0.1-0.5 0.1z"/>
	<path id="Layer" class="s5" d="m21.7 152.4c-0.4 0-0.8-0.1-1-0.3l0.2-0.4c0.3 0.2 0.5 0.4 0.8 0.4 0.4 0 0.6-0.2 0.6-0.5 0-0.3-0.3-0.4-0.6-0.5-0.4-0.2-0.9-0.4-0.9-0.8 0-0.5 0.4-0.9 1-0.9 0.3 0 0.7 0.2 0.9 0.4l-0.3 0.3c-0.1-0.2-0.4-0.3-0.6-0.3-0.4 0-0.5 0.2-0.5 0.4 0 0.3 0.3 0.4 0.6 0.5 0.4 0.2 0.9 0.4 0.9 0.9 0 0.5-0.4 0.8-1.1 0.8z"/>
	<path id="Layer" fill-rule="evenodd" class="s6" d="m185.9 24.6c0 12.4-10.2 22.6-22.6 22.6-12.4 0-22.6-10.2-22.6-22.6 0-12.4 10.2-22.6 22.6-22.6 12.4 0 22.6 10.2 22.6 22.6zm-43.3 0c0 11.5 9.2 20.7 20.7 20.7 11.5 0 20.7-9.2 20.7-20.7 0-11.5-9.2-20.7-20.7-20.7-11.5 0-20.7 9.2-20.7 20.7z"/>
	<path id="Layer" class="s7" d="m163.2 41.5c9.4 0 17-7.6 17-17 0-9.3-7.6-16.9-17-16.9-9.3 0-16.9 7.6-16.9 16.9 0 9.4 7.6 17 16.9 17z"/>
	<path id="Layer" class="s3" d="m165.6 26.5h5.7v1.3h-5.7z"/>
	<path id="Layer" class="s3" d="m167.8 21h1.4v-0.6c0-0.4-0.4-0.7-0.7-0.7-0.4 0-0.7 0.3-0.7 0.7z"/>
	<path id="Layer" class="s0" d="m166.8 22h-7.5l-1.2-1.2h-3.5v8.7h9.8l0.2-1.2v-2.8h2.2z"/>
	<path id="Layer" class="s3" d="m167.8 22h1.4v3.5h-1.4z"/>
	<path id="Layer" fill-rule="evenodd" class="s0" d="m158.6 19.8h-2.8v-3.9h12.1v2.8c-0.7 0.3-1.1 0.9-1.1 1.7v0.5h-7.1zm-1.3-1.6h9.2v-1h-9.2z"/>
	<path id="Layer" class="s3" d="m171.4 28.8h-1.3v2.9h-1v-2.9h-1.3v2.9h-1v-2.9h-1.3l-0.6 4.5h7.1z"/>
	<path id="Layer" class="s8" d="m80.6 14.8c-2 0.3-5.9 4.7-7.5 8.4-1.1 2.4-0.7 2.7-1.6 3.7-2.5 2.8-6 1.1-10.3 3.6-2.3 1.4-3.5 3.2-4 3.9-2 3-3.6 8.3-1.2 11.8 2.9 4.1 10.6 5.6 14.3 4.5 9.1-2.7 13-15 13.8-22.7 0.5-5.8-1-13.5-3.5-13.2z"/>
	<path id="Layer" class="s8" d="m83.6 13.7c-6.3 1.1-9 6-9.5 10.9-0.2 1-0.6 4.4 1.5 7.4 1.9 2.7 5.3 4.3 8.1 3.7 6.4-1.4 14.6-14 10.1-18.9-2.5-2.6-7.6-3.5-10.2-3.1z"/>
	<path id="Layer" class="s9" d="m92.4 114.6c0 0.6-0.3 0.7-0.4 1.9-0.2 1.3 0.2 1.8-0.2 2.3-0.4 0.5-1.5 0.3-2.2 0.2-1-0.2-2.7-0.5-3.7-2.1-0.2-0.3-1-1.6-0.5-3.2 0.4-1.2 1.3-2.1 2.5-2.4 2.3-0.6 4.5 1.7 4.5 3.3z"/>
	<path id="Layer" class="s9" d="m119.4 118.2c0.2 0.5 0 0.7 0.1 1.7 0.3 2.8 2.3 3.8 1.9 4.7-0.5 1.1-3.6 0.5-5.2 0.1-1.1-0.3-3.3-0.9-3.8-2.6-0.1-0.1-0.1-0.7-0.2-1.8-0.1-1.6-0.2-2.4 0-2.6 0.8-1.7 6.1-1.6 7.2 0.5z"/>
	<path id="Layer" class="s10" d="m119.6 118.8c0-3.6-0.2-10-0.3-17.9-0.1-9.8-0.9-17-1.7-18.4-0.6-1.2-1.7-1.7-2.1-1.8-1.8-0.9-4.5-0.7-5.7 0.7-0.7 0.8-0.8 1.8-0.8 2.7-0.4 6.7-0.6 10.1-0.5 12.4 0.2 2.6 0.3 3.9 0.7 5.3 0.5 1.9 1 2.6 1.5 5.1 0.3 1.3 0.5 2.3 0.7 3.7 0.4 3.1 0.6 4.7 0.4 6-0.2 1.3-0.5 1.9-0.1 2.4 0.4 0.5 1.3 0.4 3.7 0.2 3.5-0.2 4.2 0.1 4.2-0.4z"/>
	<path id="Layer" class="s10" d="m103.7 76.9c-5.7-0.8-8.5-1.2-9-1.2-4.6 0.4-9 2.8-8.8 3.9 0.2 1.4 6.5-1.1 14.8 1.9 4 1.5 6.3 3.5 10.3 3 1.1-0.1 7.2-0.6 6.6-2-0.7-1.9-4-4.1-13.9-5.6z"/>
	<path id="Layer" class="s11" d="m120.6 120.1c0.5 0.3 0.5 1.2 0.6 2.2 0.1 0.5 0.7 1.8 1.9 4.3 1.4 2.8 1.6 3.1 2 3.4 0.5 0.6 0.7 0.6 1.8 1.6 1 1 0.9 1.1 1.6 1.7 0.4 0.2 0.6 0.4 0.9 0.8 0.3 0.5 0.3 1.1 0.3 1.3 0 0.5 0 0.9-0.3 1.3-0.2 0.4-0.6 0.5-1.2 0.6-0.7 0.2-1.4 0.2-1.6 0.2-1.6-0.1-2.5-0.1-3.5-0.5-0.6-0.2-1.9-0.6-3-1.6-0.9-0.8-0.8-1.1-2.3-3.1-0.8-0.9-1.2-1.4-1.7-2-0.9-0.8-1.9-1.5-3.8-2.8-0.8-0.6-1.7-1.1-2.4-2.1-0.7-0.8-0.8-1.3-0.8-1.6 0.1-0.5 0.3-0.7 0.8-1.7 0.4-0.8 0.3-0.8 0.7-1.6 0.4-1 0.8-1.8 1.2-1.8 0.4 0 0.7 0.7 1 1.3 0.2 0.6 0.1 0.7 0.4 1.2 0.1 0.3 0.4 1 1.1 1.5 0.3 0.1 0.9 0.6 1.7 0.5 0.3-0.1 0.3-0.2 0.8-0.4 0.9-0.3 1.4 0 1.6-0.3 0.3-0.3 0-0.5 0.2-1.1 0.1-0.3 0.2-0.7 0.5-1 0.4-0.3 1.1-0.5 1.5-0.3z"/>
	<path id="Layer" class="s12" d="m109.1 123.8c0.1-0.6 0.3-0.7 0.8-1.7q0.2-0.3 0.2-0.5 0.2 0.4 0.4 0.8c0.2 0.5 0.5 0.9 1 1.4 1.5 1.7 2.4 2 3.9 3.3 1 1 0.6 0.8 2.2 2.5 1 1 1.8 1.9 3 2.8 1 0.7 1.9 1.3 3.2 1.8 1.4 0.5 2.6 0.6 3.2 0.6 0.7 0 1.1-0.1 1.5-0.1q0.5-0.2 1-0.4c0.2 0.5 0.2 0.9 0.2 1.1 0 0.5 0 1-0.3 1.3-0.2 0.4-0.6 0.5-1.2 0.6-0.7 0.2-1.4 0.2-1.6 0.2-1.6-0.1-2.5-0.1-3.5-0.5-0.6-0.2-1.8-0.6-3-1.6-0.9-0.8-0.8-1.1-2.3-3.1-0.8-0.9-1.2-1.4-1.7-2-0.9-0.8-1.9-1.5-3.8-2.8-0.8-0.6-1.6-1.1-2.4-2.1-0.7-0.9-0.8-1.3-0.8-1.6z"/>
	<path id="Layer" class="s13" d="m110.1 82.3c0.2 0.3 0.9 1.2 1.2 3.6 0.5 3.4-0.1 5.6-0.4 7.9-0.3 2.3 0.2 4.9 1.1 10.2 0.8 4.5 1.4 5.7 2.1 10.6 0.3 1.9 0.4 3.5 0.5 4.6-1.8 0.2-2.5 0.2-2.9-0.3-0.4-0.5-0.1-1 0.1-2.3 0.2-1.4 0-2.9-0.4-6-0.2-1.5-0.4-2.4-0.7-3.7-0.5-2.5-1-3.2-1.5-5.2-0.4-1.3-0.5-2.6-0.7-5.3-0.1-2.2 0.1-5.5 0.5-11.9-2.9-0.3-5-1.8-8.3-3-8.3-3-14.6-0.6-14.8-1.9-0.1-0.5 0.5-1.1 1.5-1.7 8.1 0.3 13.9 0.7 16.7 1.2 2.6 0.5 4.8 1.4 6 3.2z"/>
	<path id="Layer" class="s14" d="m72.9 79.5c-0.5 0.7-0.5 1.5-0.6 2.5-0.1 1.3-0.3 3.7 1.2 5.4 1.2 1.4 2.8 1.8 4.3 2.1 1.6 0.4 6.9 0.6 16.2 0.5 3.7-0.1 2.9-0.1 4.5-0.1 5.4 0 6.8 0.7 8.9-0.4 0.2-0.1 3-1.6 3.1-4.1 0-1.7-1.3-3-1.8-3.4-1.8-1.7-3.9-2-4.7-2.1-7.7-1.3-11.9-1.9-24.6-2.2-1.9-0.1-5.2-0.1-6.5 1.8z"/>
	<path id="Layer" class="s14" d="m108 82.1c1.5 0.3 2.6 3 2.6 5.1 0 0.3 0 1-0.4 2.4-0.5 1.6-1.1 2.8-3.7 6.7-2.3 3.5-2.9 4.3-3.4 4.8-1.2 1.3-1.1 1-2.8 2.8-2.4 2.4-3.8 4.4-4.3 5.1-0.7 1-1 1.5-1.4 2.2-1.2 2.4-1.2 2.4-2.2 4.3-0.5 0.7-1.7 0.1-2.3 0-1.3-0.4-2.7-1.4-3-2.8-0.2-1-0.3-1.5 4.8-12.4 2.2-4.6 3.2-6.8 3.7-7.5 5.1-7.9 1.9-1.8 7.8-7.4 2.6-2.6 3.5-3.6 4.6-3.3z"/>
	<path id="Layer" class="s11" d="m92.6 117.9c0.2 0.7-0.3 1.1-1.2 2.8-1.1 2.1-0.6 2.1-1.8 4.3-0.4 0.9-0.8 1.5-1 2.5-0.1 0.6-0.1 1.2-0.1 1.8 0 0.9 0.2 1.5 0.1 2.7 0 0.5 0 0.7-0.1 1-0.1 0.2-0.3 0.9-0.9 1.3-0.1 0.1-0.4 0.3-0.7 0.4-0.3 0-1.1 0.1-2.5-1-2.1-1.8-3-4.6-3.1-5.1-0.2-0.5-0.7-2.5-0.4-5 0.1-0.9 0.2-0.9 0.4-2.5 0.2-1.1 0.3-2.4 0.4-4 0-1.3 0.1-2.5 0.2-3.7 0-0.3 0-0.8 0.3-1.2 0.4-0.5 1-0.6 1.5-0.7 0.5 0 0.6 0 1.1-0.1 0.5-0.1 0.6-0.2 1.1-0.4 0.3-0.1 1.5-0.5 1.7-0.2 0.2 0.3-0.4 0.7-1 1.9-0.3 0.7-0.4 1.3-0.4 1.4 0 0.5-0.1 1.5 0.4 1.9 0.2 0.2 0.5 0.2 0.9 0.2 0 0 0.8 0.1 2.5 0.4 0.6 0.1 2.2 0.4 2.6 1.3z"/>
	<path id="Layer" class="s12" d="m80.9 123.6c0.1-0.9 0.2-0.9 0.4-2.5 0.2-1 0.3-2.4 0.4-4 0-1.3 0.1-2.5 0.2-3.7 0-0.3 0-0.8 0.3-1.2 0.4-0.4 1-0.5 1.5-0.6 0.4-0.1 0.5-0.1 0.8-0.1q-0.2 0.2-0.3 0.6c-0.1 0.3-0.1 0.6-0.2 0.9-0.1 2.3-0.1 3.6-0.2 4.8 0 0 0 0-0.2 1.3-0.4 2.8-0.5 3.1-0.5 3.6-0.2 1.4-0.2 2-0.2 2.7 0 0.4 0.2 2 1.3 3.8 0.4 0.6 1 1.2 2.1 2.3 0.7 0.8 1.1 1.1 1.6 1.2q0.4 0 0.7 0-0.1 0.1-0.1 0.3c-0.1 0.3-0.3 0.9-0.9 1.4-0.1 0-0.4 0.2-0.7 0.3-0.3 0-1.1 0.1-2.5-1-2.1-1.8-3-4.6-3.1-5.1-0.2-0.5-0.7-2.5-0.4-5z"/>
	<path id="Layer" class="s10" d="m72.3 82c0.1-1 0.1-1.8 0.6-2.5 1.1-1.6 3.6-1.8 5.5-1.8 0.1 1.2 0.2 2.5 0.7 3.8 0.4 1 0.9 2.5 2.2 3.6 1.7 1.4 3.8 1.4 4.8 1.4 11.4 0.3 14.9-0.1 15.6 1.2 0.5 1.1-1.2 2.4-4 6.4-1.4 2-2.7 4.4-5.2 9.2-1.9 3.5-3.6 7.1-5 10.4q-0.3-0.5-0.4-0.9c-0.2-1.1-0.3-1.6 4.8-12.5 2.1-4.6 3.2-6.8 3.7-7.5 0.8-1.3 1.4-2.2 1.9-2.9-0.6 0-0.9 0.1-3.5 0.1-9.3 0.1-14.6-0.1-16.2-0.4-1.5-0.4-3.1-0.7-4.3-2.1-1.5-1.8-1.3-4.2-1.2-5.5z"/>
	<path id="Layer" class="s9" d="m96.8 67.6c1.2 0.7 0.8 1.3 2.9 3.9 1.3 1.7 2 2.6 3.3 3.3 1.1 0.7 1.9 0.7 1.9 1.2 0.1 0.7-1.4 1.5-2.9 1.6-0.9 0-1.6-0.2-2.3-0.5-1.5-0.6-2.5-1.7-5.3-5.7-2.2-3.1-2.3-3.6-2.1-4 0.5-0.9 2.9-0.9 4.5 0.2z"/>
	<path id="Layer" class="s15" d="m94.6 56.1c0.6 0.1 0 1.6 1 5.9 0 0 1 4.5 2.8 6.9q0 0 0.1 0.1c0.1 0.1 0.4 0.7 0.3 1-0.1 0.3-0.6 0.2-1.2 0.5-0.8 0.4-1.2 1.1-1.4 1.4-0.4 0.9-0.3 1.4-0.5 1.5-0.6 0.2-1.8-1.7-2-2.1-2.1-3.4-3.2-5.1-3.3-6.9-0.4-4.4 3-8.7 4.2-8.3z"/>
	<path id="Layer" class="s16" d="m99.3 79.1h17.4c0.3 0 0.7-0.3 0.9-0.6l9.2-15.1c0.2-0.4-0.5-1.2-1-1.2h-18.5c-0.4 0-0.7 0.2-0.9 0.5l-8.6 15.8c-0.4 0.6 0.7 0.6 1.5 0.6z"/>
	<path id="Layer" class="s17" d="m86.1 38.6c1.5 0.4 0.8 0.3 2.1 0.6 1.4 0.4 3.1 0.8 4 1.6 1.7 1.4 1.2 3.9 1.2 4.6 0.1 1.1 1.5 2.3 2 3.8 0.3 0.8 0.8 2.2 0.7 4.1 0 0.8-0.1 2.1-1 3.5-0.4 0.6-0.6 0.6-0.9 1.2-0.9 1.3-0.8 2.7-0.8 3.5 0.1 7.4-0.7 7.3 0.1 10.4 0.5 2.4 1.3 3.7 0.6 4.7-0.5 0.8-1.5 1-2.7 1.2-5.8 0.9-6.6 1-8.1 1.3-2.8 0.5-4.4 1.3-6.8 1.6-1.8 0.3-1.4 0-3.3 0.2-0.5 0.1-0.9 0.2-1.2-0.1-0.6-0.5-0.1-1.8 0-2.3 0.6-2.2 0-2.7 0.2-7.3 0.2-3.9 0.8-8.9 2-19.8 0.4-3.7 0.7-7.4-1.4-9.1-1-0.8-2.4-1.1-2.5-2.1-0.1-1.2 1.9-2.3 2.3-2.5 2.4-1.3 4.4-1 5.7-1 1.3 0 4.1 0.9 7.8 1.9z"/>
	<path id="Layer" class="s18" d="m72.2 71.2c0.2-3.9 0.9-8.9 2-19.8 0.1-1.2 0.3-2.5 0.3-3.7q0.3 0.6 0.6 1.3c0.9 1.9 1 5.6 1.2 13.1 0.2 7.2 0.1 10.2 1.5 14.4 0.5 1.4 1 2.6 1.5 3.6-0.9 0.3-4.9 1.4-7.3 0.7-0.7-0.2-0.1-1.9 0-2.3 0.7-2.2 0-2.7 0.2-7.3z"/>
	<path id="Layer" class="s0" d="m86.9 43.4c-1.7 0-3.6-0.3-5.9-1.7-2.6-1.6-4-3.8-4.6-5 0.7 0 1.4 0 1.9 0 1.3 0 4.1 0.9 7.9 1.9 1.4 0.4 0.7 0.3 2.1 0.6 0.2 0.1 2.2 4.2-1.4 4.2z"/>
	<path id="Layer" class="s12" d="m74.3 64.1c0.4-1.2 0.1-1.3 0.4-4.4 0.4-4.1 1.1-4.7 1.3-8.3 0.1-2.4 0-3.8-0.1-4.3-0.2-1.5-0.4-3.2-1.6-4.9 0-0.1-2.6-4.2-3.8-2.8-0.6 0.7-0.9 1.5-1.3 2.8-0.9 2.9-1.2 5.3-1.2 5.6-0.3 2.5-0.5 4.4-0.5 5-0.5 5.6-0.6 6.5-0.6 7.3 0 0.9 0 3.1 0.5 5.9 0.3 1.9 1.3 3.3 1.9 3.6 1.5 0.6 3.8-2.3 5-5.5z"/>
	<path id="Layer" class="s9" d="m75.9 66.1c0.8 0.2 0.9 0.7 2.7 2.5 2.3 2.3 2.5 1.7 4.5 3.7 0.9 1 1.6 1.9 2.8 2.1 0.2 0.1 0.4 0.1 1.5 0 1.3-0.1 2.3-0.2 3.5-0.4 2.8-0.4 3.2-0.5 3.9-0.3 0.2 0.1 0.7 0.3 1.7 0.9 1 0.5 1.4 0.8 1.7 1.2 0.1 0.4 0.2 0.8 0 1-0.2 0.1-0.8-0.3-0.9-0.2 0 0.1 0.5 0.6 0.4 0.8-0.2 0.4-0.9 0.2-0.9 0.2 0 0-0.3 0.5-0.6 0.6-0.4 0.2-0.7 0-1.5-0.4-0.6-0.3-2.1-1.1-2.1-1-0.1 0.1 1.2 0.9 1 1.3-0.1 0.2-0.5 0.2-0.8 0.2-0.6-0.1-0.7-0.6-1.3-0.9-0.6-0.2-1.1-0.2-1.5-0.1-0.8 0.1-1 0.4-1.8 0.6-0.4 0.2-1.7 0.7-3.1 0.4-1-0.2-1.7-0.7-2-0.9-0.2-0.2-0.4-0.3-0.5-0.4-1.3-1.1-3.9-2.1-3.9-2.1-2.5-0.9-7.8-2.8-8-5.1-0.1-1.9 3.1-4.3 5.2-3.7z"/>
	<path id="Layer" class="s19" d="m97.2 76.4c0.1-0.1 0-0.2-0.1-0.2q-0.3-0.3-0.7-0.5c-0.4-0.3-0.7-0.5-1.2-0.7q-0.4-0.2-0.9-0.4c-0.1-0.1-0.2-0.1-0.2 0-0.1 0.1 0 0.3 0.1 0.3q0.4 0.2 0.8 0.4c0.5 0.3 0.8 0.5 1.2 0.7q0.3 0.2 0.7 0.5c0.1 0.1 0.2 0 0.3-0.1z"/>
	<path id="Layer" class="s19" d="m96.6 77.4c0 0 0-0.2-0.1-0.2q-0.4-0.3-0.7-0.5-1-0.7-2-1.3c-0.1 0-0.2 0-0.3 0.1 0 0.1 0 0.2 0.1 0.3q1 0.6 1.9 1.2 0.4 0.3 0.8 0.5c0.1 0.1 0.2 0 0.3-0.1z"/>
	<path id="Layer" class="s19" d="m92.4 76.6c0.1-0.1 0.1-0.2 0-0.3q-0.4-0.2-0.7-0.3-0.4-0.2-0.7-0.3c-0.1 0-0.3 0.1-0.3 0.2 0 0.1 0 0.2 0.1 0.2q0.4 0.1 0.7 0.3 0.3 0.1 0.7 0.3c0.1 0 0.2 0 0.2-0.1z"/>
	<path id="Layer" class="s20" d="m83.3 78.4h17.9c0.3 0 0.6 0.3 0.6 0.6 0 0.4-0.3 0.6-0.6 0.6h-17.9c-0.3 0-0.6-0.2-0.6-0.6 0-0.3 0.2-0.6 0.6-0.6z"/>
	<path id="Layer" class="s9" d="m88.1 35.5c-0.1 0.5-0.4 0.4-0.8 1.3-0.1 0.2-0.7 2.1 0.2 3.8 0.3 0.6 1.6 2.6-3.2 1.3-1.6-0.4-3.2-1.2-4.5-2.2-0.8-0.7-1.8-2.4-1.5-2.9 0.2-0.4 1-0.3 1.9-0.6 2.1-0.7 1-7.7 2.7-8.4 1.7-0.6 5.5 6 5.2 7.7z"/>
	<path id="Layer" class="s21" d="m82.9 31.9q0.2-0.2 0.5-0.3c1.8-0.7 5 2.2 4.7 3.9-0.1 0.5-0.4 0.4-0.8 1.3q-0.1 0.1-0.2 0.6-0.6-0.3-1.1-0.7c-1.7-1.2-2.6-3-3.1-4.8z"/>
	<path id="Layer" class="s9" d="m91.5 18.1c0.7 0.4 2 1.2 2.8 2.7 0.6 1 0.9 1.1 1.1 3 0.2 1.6 0 2.9-0.2 3.1-0.3 0.7-0.7 0.8-0.9 1.5-0.1 0.9 0.3 1-0.1 2.1-0.5 1.3-0.6 1.1-1.4 2.6-1.5 3.4-3.1 3.5-3.2 3.6-0.9 0.3-2-0.2-2.8-0.9-1.9-1.5-2.9-2.3-3.4-2.9-1.7-2-2-7-0.2-10.6 0.4-0.8-4-2-1.2-4.3 3.6-3 9.2 0 9.5 0.1z"/>
	<path id="Layer" class="s12" d="m73.3 60.8c0.7 0.4 1.6 3.1 2.8 4.2 0.6 0.7 1.3 0.9 1.3 1.4 0 0.4-0.4 0.6-0.7 0.8 0 0-1 0.8-2.4 2.3-1.5 1.6-1.4 3.2-2.2 3.2-0.1 0-0.2 0-0.7-0.4-0.7-0.7-4.1-4.1-4.1-7.1 0-2.9 4.5-5.3 6-4.4z"/>
	<path id="Layer" class="s22" d="m99.7 79.7h17.4c0.3 0 0.7-0.2 0.9-0.6l8.7-15.5c0.2-0.4-0.1-0.8-0.5-0.8h-18.5c-0.4 0-0.7 0.2-0.9 0.5l-8 14.8c-0.4 0.7 0.1 1.6 0.9 1.6z"/>
	<path id="Layer" class="s23" d="m70.3 63.2c0 0.1 0.1 0.1 0.2 0.1 0.5-0.4 1.2-0.8 2.2-0.8q0.6 0 1.1 0.1 0.2 0.1 0.3-0.1c0-0.1 0-0.2-0.1-0.2q-0.7-0.2-1.3-0.2c-1.1 0-1.9 0.5-2.4 0.9-0.1 0-0.1 0.2 0 0.2z"/>
	<path id="Layer" class="s24" d="m120.8 62.8l2.8 6.4-1.6 2.6-3.8-9z"/>
	<path id="Layer" class="s25" d="m98.8 78.1l8-14.8c0.2-0.3 0.5-0.5 0.9-0.5h0.5c-0.4 1.3-0.8 3-0.7 5.2 0 1.3 0.2 5 2.8 7.9 2.2 2.5 5.3 3.2 7.6 3.3-0.2 0.3-0.5 0.5-0.8 0.5h-17.4c-0.8 0-1.3-0.9-0.9-1.6z"/>
	<path id="Layer" class="s26" d="m90.7 25.9q-0.4-0.2-0.9-0.3-0.8-0.2-1.6-0.2c-0.2 0-0.3 0.1-0.3 0.2 0 0.1 0.1 0.2 0.2 0.3q0.8 0 1.5 0.2 0.5 0.1 1 0.3c0.1 0 0.2 0 0.3-0.1 0-0.2 0-0.3-0.2-0.4z"/>
	<path id="Layer" class="s19" d="m91.7 27.6c-0.1 0-0.2 0.1-0.2 0.1q-0.2 0.9-0.2 1.8 0 0.4 0 0.8c0 0.6 0 0.9-0.2 1-0.2 0.2-0.8 0.2-1.5-0.1-0.1 0-0.2 0-0.2 0.1-0.1 0 0 0.1 0.1 0.2q0.2 0 0.4 0.1 1 0.3 1.4 0c0.4-0.3 0.3-0.6 0.3-1.3q0-0.3 0-0.8 0.1-0.8 0.2-1.7c0-0.1 0-0.2-0.1-0.2z"/>
	<path id="Layer" class="s27" d="m89.3 26.9c-0.2-0.1-0.5 0.2-0.6 0.6-0.1 0.3 0.1 0.7 0.3 0.7 0.2 0.1 0.5-0.2 0.6-0.5 0-0.4-0.1-0.8-0.3-0.8z"/>
	<path id="Layer" class="s27" d="m93.4 27.8c-0.2 0-0.5 0.2-0.6 0.6 0 0.4 0.1 0.7 0.3 0.7 0.3 0.1 0.5-0.2 0.6-0.5 0.1-0.4 0-0.7-0.3-0.8z"/>
	<path id="Layer" class="s26" d="m95 26.7q-0.6-0.1-1.1-0.2-0.4-0.1-0.8-0.1c-0.2 0-0.3 0.1-0.3 0.3 0 0.1 0.1 0.2 0.2 0.2q0.4 0 0.8 0.1 0.5 0 1 0.2c0.2 0 0.3-0.1 0.3-0.2 0.1-0.1 0-0.2-0.1-0.3z"/>
	<path id="Layer" class="s28" d="m90.9 33.1h-0.3q-0.7 0-1.4-0.3l-0.6-0.2c-0.1 0-0.2 0.1-0.1 0.3 0.1 0.4 0.8 1.1 1.5 1.2 0.6 0.2 0.9-0.3 1.1-0.7 0.1-0.1 0-0.3-0.2-0.3z"/>
	<path id="Layer" class="s8" d="m91.9 15.6q-0.3-0.1-0.6-0.3c-1.1-0.4-2.2-0.6-3.2-0.7-1.6 0-2.9 0.4-3.4 0.6-3.6 1.2-5.3 4.3-5.9 5.6-0.9 1.7 2.8 7.4 2.7 8.9 4.4-7.1 11.2-2.6 12.4-9.2 0.1-0.5 2.8 3 0.5 7.7 1.8-0.6 4.6-9.2-2.5-12.6z"/>
	<path id="Layer" class="s9" d="m83 24.9c0.8 0 1.3 1 1.3 1.1 0.7 1.5-0.4 4.5-1.3 4.5-0.3 0.1-0.4-0.4-0.7-0.8-0.6-0.7-1.2-2.1-0.8-3.1 0.2-0.7 0.7-1.6 1.5-1.7z"/>
	<path id="Layer" class="s19" d="m83 28.6q0 0.1 0 0.1 0 0 0-0.1z"/>
	<path id="Layer" class="s19" d="m83.6 26.6c0.2 0.2 0.4 0.4 0.4 0.7 0 0.2-0.1 0.3-0.2 0.2q-0.1 0-0.1-0.1-0.1-0.3-0.3-0.5c-0.2-0.1-0.5 0-0.6 0.1-0.2 0.2-0.2 0.5-0.2 0.8 0.1 0.3 0.2 0.5 0.3 0.7-0.1-0.2-0.1-0.1 0 0q0 0 0 0.1 0.1 0 0.1 0.1c0.2 0.4-0.1 0.3-0.1 0.3-0.2 0-0.4-0.4-0.5-0.6-0.2-0.5-0.3-1.2 0.1-1.6 0.3-0.2 0.7-0.4 1.1-0.2z"/>
	<path id="Layer" class="s19" d="m83 28.6q-0.1 0-0.1-0.1 0 0.1 0.1 0.1 0 0 0 0z"/>
	<path id="Layer" class="s19" d="m81.9 25.5c-0.2 0.3-0.5 0.9-0.5 1.7-0.1 1.1 0.4 2.2 0.8 2.5 0.1 0.2 0.1 0.8 0.7 0.9 0.4 0.1 0.6-0.2 0.7-0.4 0.1-0.1 0-0.2-0.1-0.3 0 0-0.1 0.1-0.2 0.2-0.1 0.2-0.1 0.2-0.3 0.2-0.3-0.1-0.4-0.4-0.4-0.7 0-0.1 0-0.2-0.1-0.2-0.4-0.2-0.8-1.1-0.8-2.2q0.1-0.9 0.5-1.5c0.2-0.1 0.3-0.3 0.6-0.4 0.3-0.1 0.5 0 0.6 0.1 0.4 0.2 0.6 0.5 0.6 0.8 0.1 0.1 0.1 0.1 0.2 0.1 0.1-0.1 0.2-0.2 0.2-0.3-0.1-0.3-0.4-0.7-0.8-0.9-0.2-0.1-0.5-0.3-0.9-0.2-0.4 0.2-0.6 0.5-0.8 0.6z"/>
	<path id="Layer" class="s19" d="m83.9 27.5c0 0-0.2 0.1-0.3 0.2-0.4 0.3-0.3 0.9-0.4 0.9-0.1 0-0.1-0.3-0.1-0.6 0.1-0.1 0.1-0.4 0.3-0.5 0.2-0.1 0.5-0.1 0.5 0z"/>
</svg>